<svg width="30" height="30" viewBox="0 0 30 30" fill="none" xmlns="http://www.w3.org/2000/svg">
<path fill-rule="evenodd" clip-rule="evenodd" d="M19 0.666584L11 0.666584C3.75999 0.666584 0.66666 3.75992 0.66666 10.9999L0.66666 18.9999C0.66666 26.2399 3.75999 29.3333 11 29.3333L19 29.3333C26.24 29.3333 29.3333 26.2399 29.3333 18.9999L29.3333 10.9999C29.3333 3.75992 26.24 0.666584 19 0.666584ZM27.3333 18.9999C27.3333 25.1466 25.1467 27.3333 19 27.3333L11 27.3333C4.85333 27.3333 2.66666 25.1466 2.66666 18.9999L2.66666 10.9999C2.66666 4.85325 4.85333 2.66658 11 2.66658L19 2.66658C25.1467 2.66658 27.3333 4.85325 27.3333 10.9999L27.3333 18.9999ZM15.7067 11.4132C15.5067 11.2132 15.2533 11.1199 15 11.1199C14.7467 11.1199 14.4933 11.2132 14.2933 11.4132L9.58667 16.1199C9.2 16.5066 9.2 17.1466 9.58667 17.5332C9.97334 17.9199 10.6133 17.9199 11 17.5332L15 13.5332L19 17.5332C19.3867 17.9199 20.0267 17.9199 20.4133 17.5332C20.8 17.1466 20.8 16.5066 20.4133 16.1199L15.7067 11.4132Z" fill="#333333"/>
</svg>
